<svg width="58" height="63" viewBox="0 0 58 63" fill="none" xmlns="http://www.w3.org/2000/svg">
<g clip-path="url(#clip0_3_2)">
<path d="M35.1261 10.6958H33.7055C33.3359 9.59632 32.6632 8.64667 31.7786 7.97564C30.8941 7.30462 29.8405 6.94469 28.7607 6.94469C27.681 6.94469 26.6273 7.30462 25.7428 7.97564C24.8582 8.64667 24.1855 9.59632 23.8159 10.6958H22.6795C21.8194 10.6996 20.9956 11.0716 20.3875 11.7307C19.7793 12.3897 19.4361 13.2825 19.4325 14.2146V19.4928H38.373V14.2146C38.3694 13.2825 38.0262 12.3897 37.4181 11.7307C36.8099 11.0716 35.9861 10.6996 35.1261 10.6958ZM35.6672 16.5604H22.1383V13.9947C22.1383 13.8974 22.1739 13.8042 22.2374 13.7355C22.3008 13.6667 22.3868 13.6281 22.4765 13.6281H26.1158L26.2782 12.0007C26.3069 11.7375 26.3885 11.4844 26.517 11.259C26.6455 11.0336 26.818 10.8414 27.0222 10.6958C27.3853 10.4024 27.8106 10.2126 28.2589 10.1435C28.7073 10.0745 29.1645 10.1286 29.5886 10.3008C30.0127 10.4729 30.3901 10.7577 30.6863 11.129C30.9825 11.5003 31.188 11.9462 31.2839 12.4259L31.4056 13.6574H35.329C35.4187 13.6574 35.5047 13.6961 35.5682 13.7648C35.6316 13.8335 35.6672 13.9268 35.6672 14.024V16.5604Z" fill="white" stroke="white"/>
<path d="M49.6808 32.1972H33.9554L37.7021 28.1924C37.8251 28.0605 37.9226 27.9038 37.9892 27.7315C38.0558 27.5591 38.09 27.3743 38.09 27.1877C38.09 27.0011 38.0558 26.8163 37.9892 26.644C37.9226 26.4716 37.8251 26.3149 37.7021 26.183C37.5791 26.051 37.433 25.9464 37.2723 25.875C37.1116 25.8036 36.9394 25.7668 36.7654 25.7668C36.5915 25.7668 36.4192 25.8036 36.2585 25.875C36.0978 25.9464 35.9518 26.051 35.8288 26.183L28.9027 33.6123L35.8288 41.0415C35.952 41.1727 36.0982 41.2764 36.2589 41.3469C36.4197 41.4173 36.5918 41.453 36.7654 41.4519C37.0247 41.4507 37.278 41.3676 37.4935 41.2129C37.7091 41.0583 37.8773 40.8389 37.9773 40.5822C38.0772 40.3255 38.1044 40.0429 38.0555 39.7697C38.0065 39.4965 37.8836 39.2449 37.7021 39.0462L33.9554 35.0273H49.6808C50.0306 35.0273 50.3662 34.8783 50.6136 34.6129C50.861 34.3475 51 33.9876 51 33.6123C51 33.2369 50.861 32.877 50.6136 32.6116C50.3662 32.3462 50.0306 32.1972 49.6808 32.1972Z" fill="white" stroke="white"/>
<path d="M44.622 28.9038H47.8431V15.6143C47.8473 15.3022 47.7818 14.9925 47.6504 14.703C47.5189 14.4134 47.3241 14.1498 47.0772 13.9271C46.8302 13.7045 46.5359 13.5273 46.2113 13.4057C45.8867 13.2841 45.5381 13.2206 45.1857 13.2187H41.5298V16.0706H44.622V28.9038Z" fill="white" stroke="white"/>
<path d="M44.9293 51.0871H12.8763V16.1317H15.7903V13.2187H12.3518C11.7129 13.2264 11.103 13.4865 10.6553 13.9423C10.2076 14.398 9.95855 15.0123 9.96244 15.651V51.5531C9.95859 51.8719 10.0178 52.1882 10.1367 52.4839C10.2556 52.7797 10.4319 53.049 10.6553 53.2764C10.8787 53.5038 11.1449 53.6848 11.4386 53.809C11.7322 53.9332 12.0476 53.9981 12.3664 54H45.4538C46.0927 53.9923 46.7026 53.7322 47.1503 53.2765C47.598 52.8207 47.8471 52.2064 47.8432 51.5677V38.0662H44.9293V51.0871Z" fill="white" stroke="white"/>
</g>
<defs>
<clipPath id="clip0_3_2">
<rect width="57.0566" height="63" rx="5" fill="white"/>
</clipPath>
</defs>
</svg>
